<?xml version="1.0" encoding="UTF-8"?>
<svg width="55px" height="61px" viewBox="0 0 55 61" version="1.1" xmlns="http://www.w3.org/2000/svg" xmlns:xlink="http://www.w3.org/1999/xlink">
    <title>Nest_Logo</title>
    <g id="Page-1" stroke="none" stroke-width="1" fill="none" fill-rule="evenodd">
        <g id="Nest_Logo" transform="translate(0.388329, 0.976693)" fill-rule="nonzero">
            <path d="M44.5079092,2.54002421 C56.0127842,9.63595862 56.6750714,29.46673 46.4190808,46.1185228 C36.1630903,62.751393 19.8329799,61.8998809 11.2043237,56.6015832 C2.89734977,51.4925104 -5.52315907,37.0735717 4.71390898,20.4407014 C14.988822,3.78890867 33.0030342,-4.55591021 44.5079092,2.54002421 L44.5079092,2.54002421 Z" id="Path" fill="#FF8200"></path>
            <path d="M3.80562938,28.1043106 L7.23060039,28.1043106 L7.23060039,29.5613425 C7.72258517,28.5395279 8.97146963,27.8583182 10.5609589,27.8583182 C13.3993327,27.8583182 14.950977,29.6748774 14.950977,32.6646311 L14.950977,35.5976173 C14.950977,36.4491295 15.1212795,36.8086568 15.7078767,36.8086568 C15.8403341,36.8086568 16.0295591,36.7897343 16.067404,36.7897343 L16.067404,39.6848756 C15.9538691,39.7227205 15.4618843,39.855178 14.5725272,39.855178 C12.7370455,39.855178 11.5070835,38.9847434 11.5070835,36.5437419 L11.5070835,33.0998484 C11.5070835,31.7563515 10.7880288,30.9048394 9.44453192,30.9048394 C8.15780248,30.9048394 7.2116779,31.850964 7.2116779,33.2133834 L7.2116779,39.7227205 L3.80562938,39.7227205 L3.80562938,28.1043106 Z" id="Path" fill="#FFFFFF"></path>
            <path d="M3.80562938,28.1043106 L7.23060039,28.1043106 L7.23060039,29.5613425 C7.72258517,28.5395279 8.97146963,27.8583182 10.5609589,27.8583182 C13.3993327,27.8583182 14.950977,29.6748774 14.950977,32.6646311 L14.950977,35.5976173 C14.950977,36.4491295 15.1212795,36.8086568 15.7078767,36.8086568 C15.8403341,36.8086568 16.0295591,36.7897343 16.067404,36.7897343 L16.067404,39.6848756 C15.9538691,39.7227205 15.4618843,39.855178 14.5725272,39.855178 C12.7370455,39.855178 11.5070835,38.9847434 11.5070835,36.5437419 L11.5070835,33.0998484 C11.5070835,31.7563515 10.7880288,30.9048394 9.44453192,30.9048394 C8.15780248,30.9048394 7.2116779,31.850964 7.2116779,33.2133834 L7.2116779,39.7227205 L3.80562938,39.7227205 L3.80562938,28.1043106 Z" id="Path" fill="#FFFFFF"></path>
            <path d="M16.8243037,33.8756706 C16.8243037,30.1668622 19.4923751,27.8015507 23.106571,27.8015507 C26.7018444,27.8015507 29.0671559,30.4317771 29.0671559,33.6864457 C29.0671559,33.6864457 29.0671559,34.2541204 29.0293109,34.7839502 L20.2681972,34.7839502 C20.3438872,36.1652921 21.5360042,37.0546492 23.3525634,37.0546492 C24.5446804,37.0546492 25.37727,36.6951219 26.1909371,35.9192997 L28.1967213,37.8304714 C26.6450769,39.4199607 24.9798977,39.9497904 23.2011834,39.9497904 C19.4166851,39.9497904 16.8432262,37.584479 16.8432262,33.9324381 L16.8432262,33.8756706 L16.8243037,33.8756706 Z M25.6232624,32.5700187 C25.6232624,31.5103591 24.4879129,30.6399245 23.106571,30.6399245 C21.6116941,30.6399245 20.3817322,31.4914366 20.3060422,32.5700187 L25.6232624,32.5700187 Z" id="Shape" fill="#FFFFFF"></path>
            <path d="M31.2432424,35.8436097 C31.8676847,36.5815869 33.0598017,37.1114167 34.4222211,37.1114167 C35.6332605,37.1114167 36.1630903,36.7140444 36.1630903,36.1652921 C36.1630903,35.3894699 34.573601,35.31378 32.7948868,34.7082602 C31.186475,34.159508 30.1268154,33.2323059 30.1268154,31.4914366 C30.1268154,29.0125902 32.2839795,27.7637057 34.6303685,27.7637057 C36.6929201,27.7637057 38.036417,28.4827604 38.9068516,29.2585826 L37.2795173,31.5103591 C36.76861,31.0940643 35.8981754,30.658847 34.535756,30.658847 C33.7599339,30.658847 33.381484,30.9994518 33.381484,31.3968242 C33.381484,32.1726463 34.3276086,32.0401889 36.5604626,32.816011 C38.6608592,33.5350657 39.4177589,34.6325703 39.4177589,36.1085246 C39.4177589,38.3413786 37.8471921,40.0254804 34.3086861,40.0254804 C31.7163047,40.0254804 30.1268154,39.0415108 29.2374583,37.9629288 L31.2432424,35.8436097 Z" id="Path" fill="#FFFFFF"></path>
            <path d="M41.461388,31.2075992 L39.9475887,31.2075992 L39.9475887,28.1043106 L41.461388,28.1043106 L41.461388,24.6036496 L44.7917466,24.6036496 L44.7917466,28.1043106 L47.3652054,28.1043106 L47.3652054,31.2075992 L44.7917466,31.2075992 L44.7917466,35.3516249 C44.7917466,36.4869744 45.2458864,36.9032693 46.2677009,36.9032693 C46.5136933,36.9032693 46.8353757,36.8654243 47.1381355,36.8086568 L47.1381355,39.855178 C46.7407632,39.9497904 46.0973985,40.0254804 45.4540338,40.0254804 C43.7510095,40.0254804 41.4424655,39.5145731 41.4424655,35.8814547 L41.4424655,31.2075992 L41.461388,31.2075992 Z" id="Path" fill="#FFFFFF"></path>
        </g>
    </g>
</svg>